<svg width="19" height="19" viewBox="0 0 19 19" fill="none" xmlns="http://www.w3.org/2000/svg">
<rect width="19" height="19" fill="#585858"/>
<g id="2-3. &#236;&#136;&#152;&#234;&#176;&#149;&#236;&#131;&#157; &#237;&#143;&#172;&#237;&#138;&#184;&#237;&#143;&#180;&#235;&#166;&#172;&#236;&#152;&#164; &#236;&#131;&#129;&#236;&#132;&#184;&#237;&#142;&#152;&#236;&#157;&#180;&#236;&#167;&#128;" clip-path="url(#clip0_0_1)">
<rect width="1920" height="1067" transform="translate(-815 -40)" fill="white"/>
<g id="&#234;&#184;&#176;&#236;&#151;&#133; &#237;&#153;&#148;&#235;&#169;&#180; &#236;&#131;&#129;&#235;&#139;&#168;&#235;&#176;&#148; &#236;&#187;&#180;&#237;&#143;&#172;&#235;&#132;&#140;&#237;&#138;&#184; - &#237;&#153;&#136;O">
<g id="Rectangle 1822" filter="url(#filter0_d_0_1)">
<rect x="-815" y="-40" width="1920" height="100" fill="white"/>
</g>
<g id="Rectangle 1823" filter="url(#filter1_d_0_1)">
<rect x="-815" y="-40" width="1920" height="100" fill="white"/>
</g>
<g id="Group 7335">
<path id="Vector" d="M18 16.9206V7.74603C18 7.57847 17.9616 7.4132 17.8878 7.26333C17.8141 7.11345 17.707 6.98308 17.575 6.88254L10.1375 1.21587C9.95359 1.07575 9.72989 1 9.5 1C9.27011 1 9.04641 1.07575 8.8625 1.21587L1.425 6.88254C1.29304 6.98308 1.18594 7.11345 1.11217 7.26333C1.0384 7.4132 1 7.57847 1 7.74603V16.9206C1 17.2069 1.11194 17.4814 1.3112 17.6839C1.51046 17.8863 1.78071 18 2.0625 18H6.3125C6.59429 18 6.86454 17.8863 7.0638 17.6839C7.26306 17.4814 7.375 17.2069 7.375 16.9206V13.6825C7.375 13.3963 7.48694 13.1217 7.6862 12.9193C7.88546 12.7169 8.15571 12.6032 8.4375 12.6032H10.5625C10.8443 12.6032 11.1145 12.7169 11.3138 12.9193C11.5131 13.1217 11.625 13.3963 11.625 13.6825V16.9206C11.625 17.2069 11.7369 17.4814 11.9362 17.6839C12.1355 17.8863 12.4057 18 12.6875 18H16.9375C17.2193 18 17.4895 17.8863 17.6888 17.6839C17.8881 17.4814 18 17.2069 18 16.9206Z" stroke="#7B7B7B" stroke-width="1.2" stroke-linecap="round" stroke-linejoin="round"/>
</g>
</g>
</g>
<defs>
<filter id="filter0_d_0_1" x="-827" y="-48" width="1944" height="124" filterUnits="userSpaceOnUse" color-interpolation-filters="sRGB">
<feFlood flood-opacity="0" result="BackgroundImageFix"/>
<feColorMatrix in="SourceAlpha" type="matrix" values="0 0 0 0 0 0 0 0 0 0 0 0 0 0 0 0 0 0 127 0" result="hardAlpha"/>
<feMorphology radius="2" operator="dilate" in="SourceAlpha" result="effect1_dropShadow_0_1"/>
<feOffset dy="4"/>
<feGaussianBlur stdDeviation="5"/>
<feComposite in2="hardAlpha" operator="out"/>
<feColorMatrix type="matrix" values="0 0 0 0 0 0 0 0 0 0 0 0 0 0 0 0 0 0 0.12 0"/>
<feBlend mode="normal" in2="BackgroundImageFix" result="effect1_dropShadow_0_1"/>
<feBlend mode="normal" in="SourceGraphic" in2="effect1_dropShadow_0_1" result="shape"/>
</filter>
<filter id="filter1_d_0_1" x="-827" y="-48" width="1944" height="124" filterUnits="userSpaceOnUse" color-interpolation-filters="sRGB">
<feFlood flood-opacity="0" result="BackgroundImageFix"/>
<feColorMatrix in="SourceAlpha" type="matrix" values="0 0 0 0 0 0 0 0 0 0 0 0 0 0 0 0 0 0 127 0" result="hardAlpha"/>
<feMorphology radius="2" operator="dilate" in="SourceAlpha" result="effect1_dropShadow_0_1"/>
<feOffset dy="4"/>
<feGaussianBlur stdDeviation="5"/>
<feComposite in2="hardAlpha" operator="out"/>
<feColorMatrix type="matrix" values="0 0 0 0 0 0 0 0 0 0 0 0 0 0 0 0 0 0 0.12 0"/>
<feBlend mode="normal" in2="BackgroundImageFix" result="effect1_dropShadow_0_1"/>
<feBlend mode="normal" in="SourceGraphic" in2="effect1_dropShadow_0_1" result="shape"/>
</filter>
<clipPath id="clip0_0_1">
<rect width="1920" height="1067" fill="white" transform="translate(-815 -40)"/>
</clipPath>
</defs>
</svg>
