<svg width="24" height="24" viewBox="0 0 24 24" fill="none" xmlns="http://www.w3.org/2000/svg">
<g id="Group 7273">
<rect id="Rectangle 1826" width="6.85714" height="6.85714" fill="#6D6D6D"/>
<rect id="Rectangle 1829" y="8.57227" width="6.85714" height="6.85714" fill="#6D6D6D"/>
<rect id="Rectangle 1832" y="17.1426" width="6.85714" height="6.85714" fill="#6D6D6D"/>
<line id="Line 124" x1="8.99991" y1="0.501953" x2="23.9999" y2="0.499181" stroke="#6D6D6D"/>
<line id="Line 127" y1="-0.5" x2="15" y2="-0.5" transform="matrix(1 -0.000177065 0.000192828 1 9 9.62695)" stroke="#6D6D6D"/>
<line id="Line 130" y1="-0.5" x2="15" y2="-0.5" transform="matrix(1 -0.000177065 0.000192828 1 9 18.25)" stroke="#6D6D6D"/>
<line id="Line 125" y1="-0.5" x2="15" y2="-0.5" transform="matrix(1 -0.000177065 0.000192828 1 9 3.87695)" stroke="#6D6D6D"/>
<line id="Line 128" y1="-0.5" x2="15" y2="-0.5" transform="matrix(1 -0.000177065 0.000192828 1 9 12.5)" stroke="#6D6D6D"/>
<line id="Line 133" y1="-0.5" x2="15" y2="-0.5" transform="matrix(1 -0.000177065 0.000192828 1 9 15.375)" stroke="#6D6D6D"/>
<line id="Line 131" y1="-0.5" x2="15" y2="-0.5" transform="matrix(1 -0.000177065 0.000192828 1 9 21.125)" stroke="#6D6D6D"/>
<line id="Line 126" y1="-0.5" x2="15" y2="-0.5" transform="matrix(1 -0.000177065 0.000192828 1 9 6.75195)" stroke="#6D6D6D"/>
<line id="Line 132" y1="-0.5" x2="15" y2="-0.5" transform="matrix(1 -0.000177065 0.000192828 1 9 24)" stroke="#6D6D6D"/>
</g>
</svg>
