<svg width="20" height="20" viewBox="0 0 20 20" fill="none" xmlns="http://www.w3.org/2000/svg">
<path d="M5 5H6.25V7.5H5V5ZM5 8.75H6.25V11.25H5V8.75ZM8.75 5H10V7.5H8.75V5ZM8.75 8.75H10V11.25H8.75V8.75ZM5 12.5H6.25V15H5V12.5ZM8.75 12.5H10V15H8.75V12.5Z" fill="#7B7B7B"/>
<path d="M18.75 8.75C18.75 8.41848 18.6183 8.10054 18.3839 7.86612C18.1495 7.6317 17.8315 7.5 17.5 7.5H13.75V2.5C13.75 2.16848 13.6183 1.85054 13.3839 1.61612C13.1495 1.3817 12.8315 1.25 12.5 1.25H2.5C2.16848 1.25 1.85054 1.3817 1.61612 1.61612C1.3817 1.85054 1.25 2.16848 1.25 2.5V18.75H18.75V8.75ZM2.5 2.5H12.5V17.5H2.5V2.5ZM13.75 17.5V8.75H17.5V17.5H13.75Z" fill="#7B7B7B"/>
</svg>
