<svg width="40" height="40" viewBox="0 0 40 40" fill="none" xmlns="http://www.w3.org/2000/svg">
<g id="Group 7435">
<circle id="Ellipse 86" cx="20" cy="20" r="19.5" fill="white" stroke="#D9D9D9"/>
<path id="Vector" fill-rule="evenodd" clip-rule="evenodd" d="M25.58 18.7398C25.8489 19.0088 26 19.3737 26 19.7541C26 20.1345 25.8489 20.4993 25.58 20.7683L17.466 28.8837C17.3337 29.0208 17.1754 29.13 17.0005 29.2052C16.8255 29.2804 16.6372 29.32 16.4468 29.3216C16.2563 29.3233 16.0675 29.287 15.8912 29.2149C15.7149 29.1427 15.5548 29.0362 15.4201 28.9015C15.2854 28.7668 15.1789 28.6066 15.1068 28.4303C15.0347 28.254 14.9984 28.0651 15.0001 27.8747C15.0017 27.6842 15.0413 27.4959 15.1164 27.3209C15.1916 27.1459 15.3009 26.9876 15.4379 26.8552L22.5378 19.7541L15.4379 12.6529C15.1766 12.3823 15.032 12.0199 15.0353 11.6438C15.0386 11.2677 15.1894 10.9078 15.4554 10.6419C15.7213 10.3759 16.081 10.225 16.4571 10.2217C16.8332 10.2185 17.1955 10.3631 17.466 10.6244L25.58 18.7398Z" fill="#6D6D6D"/>
</g>
</svg>
