<svg width="40" height="40" viewBox="0 0 40 40" fill="none" xmlns="http://www.w3.org/2000/svg">
<g id="Group 7408">
<circle id="Ellipse 86" cx="20" cy="20" r="19.5" transform="matrix(-1 0 0 1 40 0)" fill="white" stroke="#D9D9D9"/>
<path id="Vector" fill-rule="evenodd" clip-rule="evenodd" d="M13.42 18.7393C13.1511 19.0083 13 19.3732 13 19.7536C13 20.134 13.1511 20.4988 13.42 20.7678L21.534 28.8833C21.6663 29.0203 21.8246 29.1296 21.9995 29.2047C22.1745 29.2799 22.3628 29.3195 22.5532 29.3212C22.7437 29.3228 22.9325 29.2865 23.1088 29.2144C23.2851 29.1423 23.4452 29.0357 23.5799 28.901C23.7146 28.7663 23.8211 28.6062 23.8932 28.4299C23.9653 28.2536 24.0016 28.0646 23.9999 27.8742C23.9983 27.6837 23.9587 27.4954 23.8836 27.3204C23.8084 27.1454 23.6991 26.9871 23.5621 26.8548L16.4622 19.7536L23.5621 12.6524C23.8234 12.3818 23.968 12.0194 23.9647 11.6433C23.9614 11.2672 23.8106 10.9074 23.5446 10.6414C23.2787 10.3754 22.919 10.2245 22.5429 10.2212C22.1668 10.218 21.8045 10.3626 21.534 10.6239L13.42 18.7393Z" fill="#AAAAAA"/>
</g>
</svg>
